<svg width="48" height="48" viewBox="0 0 48 48" fill="none" xmlns="http://www.w3.org/2000/svg">
<circle cx="24" cy="24" r="24" fill="#1242FF"/>
<path d="M12.64 18.84C12.64 19.68 11.96 20.36 11.12 20.36C10.28 20.36 9.6 19.68 9.6 18.84C9.6 18 10.28 17.32 11.12 17.32C11.96 17.32 12.64 18 12.64 18.84ZM16.04 18.84C16.04 19.68 15.36 20.36 14.52 20.36C13.68 20.36 13 19.68 13 18.84C13 18 13.68 17.32 14.52 17.32C15.36 17.32 16.04 18 16.04 18.84ZM12.64 27.16C12.64 28 11.96 28.68 11.12 28.68C10.28 28.68 9.6 28 9.6 27.16C9.6 26.32 10.28 25.64 11.12 25.64C11.96 25.64 12.64 26.32 12.64 27.16ZM16.04 27.16C16.04 28 15.36 28.68 14.52 28.68C13.68 28.68 13 28 13 27.16C13 26.32 13.68 25.64 14.52 25.64C15.36 25.64 16.04 26.32 16.04 27.16ZM16.04 31.32C16.04 32.16 15.36 32.84 14.52 32.84C13.68 32.84 13 32.16 13 31.32C13 30.48 13.68 29.8 14.52 29.8C15.36 29.8 16.04 30.48 16.04 31.32ZM12.64 35.48C12.64 36.32 11.96 37 11.12 37C10.28 37 9.6 36.32 9.6 35.48C9.6 34.64 10.28 33.96 11.12 33.96C11.96 33.96 12.64 34.64 12.64 35.48ZM22.2728 23C22.2728 23.84 21.5928 24.52 20.7528 24.52C19.9128 24.52 19.2328 23.84 19.2328 23C19.2328 22.16 19.9128 21.48 20.7528 21.48C21.5928 21.48 22.2728 22.16 22.2728 23ZM25.6728 23C25.6728 23.84 24.9928 24.52 24.1528 24.52C23.3128 24.52 22.6328 23.84 22.6328 23C22.6328 22.16 23.3128 21.48 24.1528 21.48C24.9928 21.48 25.6728 22.16 25.6728 23ZM29.0728 23C29.0728 23.84 28.3928 24.52 27.5528 24.52C26.7128 24.52 26.0328 23.84 26.0328 23C26.0328 22.16 26.7128 21.48 27.5528 21.48C28.3928 21.48 29.0728 22.16 29.0728 23ZM32.2641 10.52C32.2641 9.68 32.9441 9 33.7841 9C34.6241 9 35.3041 9.68 35.3041 10.52C35.3041 11.36 34.6241 12.04 33.7841 12.04C32.9441 12.04 32.2641 11.36 32.2641 10.52ZM35.6641 14.68C35.6641 13.84 36.3441 13.16 37.1841 13.16C38.0241 13.16 38.7041 13.84 38.7041 14.68C38.7041 15.52 38.0241 16.2 37.1841 16.2C36.3441 16.2 35.6641 15.52 35.6641 14.68ZM39.0641 18.84C39.0641 18 39.7441 17.32 40.5841 17.32C41.4241 17.32 42.1041 18 42.1041 18.84C42.1041 19.68 41.4241 20.36 40.5841 20.36C39.7441 20.36 39.0641 19.68 39.0641 18.84ZM39.0641 23C39.0641 22.16 39.7441 21.48 40.5841 21.48C41.4241 21.48 42.1041 22.16 42.1041 23C42.1041 23.84 41.4241 24.52 40.5841 24.52C39.7441 24.52 39.0641 23.84 39.0641 23ZM39.0641 27.16C39.0641 26.32 39.7441 25.64 40.5841 25.64C41.4241 25.64 42.1041 26.32 42.1041 27.16C42.1041 28 41.4241 28.68 40.5841 28.68C39.7441 28.68 39.0641 28 39.0641 27.16ZM35.6641 31.32C35.6641 30.48 36.3441 29.8 37.1841 29.8C38.0241 29.8 38.7041 30.48 38.7041 31.32C38.7041 32.16 38.0241 32.84 37.1841 32.84C36.3441 32.84 35.6641 32.16 35.6641 31.32ZM32.2641 35.48C32.2641 34.64 32.9441 33.96 33.7841 33.96C34.6241 33.96 35.3041 34.64 35.3041 35.48C35.3041 36.32 34.6241 37 33.7841 37C32.9441 37 32.2641 36.32 32.2641 35.48Z" fill="white"/>
</svg>
